M48
;Layer_Color=9474304
;FILE_FORMAT=4:4
METRIC,LZ
;TYPE=PLATED
T01F00S00C0.3048
T02F00S00C0.3810
T03F00S00C0.7112
T04F00S00C0.8000
T05F00S00C0.8500
T07F00S00C1.2000
%
T01
X0033147Y0020066
X0036703
X0031877Y0030226
X0032004Y0038735
X0043688Y00313801
X0045974Y0033528
X0047117
X0050546Y0037592
X0058801Y0036576
X0062738Y0036322
X0066929Y003683
X0068834Y0039243
X0072009Y003937
X0075946Y0039116
X0074676Y0025146
X007366Y0023114
X007239Y0020066
X0068199Y0019939
X0069088Y0022987
X0070485Y0025654
X0062865Y0027813
X0061595Y0029476
X0059309Y0025781
X0056769Y0024003
X00508
X004699Y0024765
X0047117Y002286
X0047498Y0020066
X0043053
Y002286
Y0026289
X005461Y0031623
X0077089Y0020193
X0076581Y0043688
X0073152Y0043434
X007366Y0041021
X006985Y0042926
X0067056Y0041148
X0061722Y0047625
X0061341Y0054356
X0057658Y0052451
X0054483Y0054737
X005461Y0049911
X0053975Y0042672
X0049784Y0042545
X0047879Y0044958
X0044196Y004572
X0045288Y0051943
X0045085Y0055118
X0047244Y004064
X0069977Y0054737
X0038354Y0055118
X0032004Y005461
X0035052Y00508
X0035941Y0048006
X0035433Y0044704
X0032385Y0047625
T02
X0057404Y0034036
T03
X0045974Y002921
X0052959
X0052989Y0048514
X00477141Y0047429
T04
X0033949Y0038481
X0036449
X006731Y0033381
Y0030881
Y00491758
Y00516758
T05
X0039794Y0046726
X0041994Y0051826
T07
X0074422Y0029861
Y0033361
Y0048149
Y0051649
M30
