G04*
G04 #@! TF.GenerationSoftware,Altium Limited,Altium Designer,26.2.0 (7)*
G04*
G04 Layer_Physical_Order=1*
G04 Layer_Color=255*
%FSLAX44Y44*%
%MOMM*%
G71*
G04*
G04 #@! TF.SameCoordinates,31A5F6EC-DB14-40A7-930D-96B77108718B*
G04*
G04*
G04 #@! TF.FilePolarity,Positive*
G04*
G01*
G75*
%ADD12R,7.4930X1.7907*%
%ADD13R,1.0000X0.5080*%
%ADD14R,1.0668X1.4478*%
%ADD15R,1.0000X0.9000*%
%ADD16R,0.9398X0.9652*%
%ADD17R,1.4478X1.0668*%
%ADD18R,2.0000X1.8000*%
%ADD33C,2.0320*%
%ADD34C,0.7620*%
%ADD35C,1.7780*%
%ADD36C,0.5588*%
%ADD37C,0.3048*%
%ADD38C,1.0160*%
%ADD39C,1.2700*%
%ADD40C,0.2540*%
G04:AMPARAMS|DCode=41|XSize=1.5mm|YSize=4mm|CornerRadius=0.375mm|HoleSize=0mm|Usage=FLASHONLY|Rotation=90.000|XOffset=0mm|YOffset=0mm|HoleType=Round|Shape=RoundedRectangle|*
%AMROUNDEDRECTD41*
21,1,1.5000,3.2500,0,0,90.0*
21,1,0.7500,4.0000,0,0,90.0*
1,1,0.7500,1.6250,0.3750*
1,1,0.7500,1.6250,-0.3750*
1,1,0.7500,-1.6250,-0.3750*
1,1,0.7500,-1.6250,0.3750*
%
%ADD41ROUNDEDRECTD41*%
G04:AMPARAMS|DCode=42|XSize=1.5mm|YSize=3.5mm|CornerRadius=0.375mm|HoleSize=0mm|Usage=FLASHONLY|Rotation=270.000|XOffset=0mm|YOffset=0mm|HoleType=Round|Shape=RoundedRectangle|*
%AMROUNDEDRECTD42*
21,1,1.5000,2.7500,0,0,270.0*
21,1,0.7500,3.5000,0,0,270.0*
1,1,0.7500,-1.3750,-0.3750*
1,1,0.7500,-1.3750,0.3750*
1,1,0.7500,1.3750,0.3750*
1,1,0.7500,1.3750,-0.3750*
%
%ADD42ROUNDEDRECTD42*%
G04:AMPARAMS|DCode=43|XSize=1.5mm|YSize=3.5mm|CornerRadius=0.375mm|HoleSize=0mm|Usage=FLASHONLY|Rotation=0.000|XOffset=0mm|YOffset=0mm|HoleType=Round|Shape=RoundedRectangle|*
%AMROUNDEDRECTD43*
21,1,1.5000,2.7500,0,0,0.0*
21,1,0.7500,3.5000,0,0,0.0*
1,1,0.7500,0.3750,-1.3750*
1,1,0.7500,-0.3750,-1.3750*
1,1,0.7500,-0.3750,1.3750*
1,1,0.7500,0.3750,1.3750*
%
%ADD43ROUNDEDRECTD43*%
%ADD44C,1.3580*%
%ADD45R,1.8000X1.8000*%
%ADD46C,1.8000*%
%ADD47C,1.5000*%
%ADD48C,0.4572*%
%ADD49C,1.2700*%
%ADD50C,0.5080*%
G36*
X782320Y192940D02*
X308610Y192940D01*
Y558700D01*
X452543Y558700D01*
X740409Y558700D01*
X782320D01*
Y192940D01*
D02*
G37*
%LPC*%
G36*
X674422Y526799D02*
X674370D01*
Y518028D01*
X683140D01*
Y518080D01*
X682456Y520634D01*
X681134Y522923D01*
X679265Y524793D01*
X676975Y526114D01*
X674422Y526799D01*
D02*
G37*
G36*
X671830D02*
X671778D01*
X669225Y526114D01*
X666935Y524793D01*
X665066Y522923D01*
X663744Y520634D01*
X663060Y518080D01*
Y518028D01*
X671830D01*
Y526799D01*
D02*
G37*
G36*
X745739Y528030D02*
X745490D01*
Y517760D01*
X755760D01*
Y518009D01*
X754974Y520944D01*
X753454Y523576D01*
X751306Y525724D01*
X748674Y527243D01*
X745739Y528030D01*
D02*
G37*
G36*
X742950D02*
X742701D01*
X739766Y527243D01*
X737134Y525724D01*
X734986Y523576D01*
X733466Y520944D01*
X732680Y518009D01*
Y517760D01*
X742950D01*
Y528030D01*
D02*
G37*
G36*
X536080Y513690D02*
X529810D01*
Y509880D01*
X536080D01*
Y513690D01*
D02*
G37*
G36*
X503809Y514294D02*
X495300D01*
Y507690D01*
X503809D01*
Y514294D01*
D02*
G37*
G36*
X683140Y515489D02*
X674370D01*
Y506718D01*
X674422D01*
X676975Y507403D01*
X679265Y508725D01*
X681134Y510594D01*
X682456Y512883D01*
X683140Y515437D01*
Y515489D01*
D02*
G37*
G36*
X671830D02*
X663060D01*
Y515437D01*
X663744Y512883D01*
X665066Y510594D01*
X666935Y508725D01*
X669225Y507403D01*
X671778Y506718D01*
X671830D01*
Y515489D01*
D02*
G37*
G36*
X755760Y515220D02*
X745490D01*
Y504950D01*
X745739D01*
X748674Y505736D01*
X751306Y507256D01*
X753454Y509404D01*
X754974Y512036D01*
X755760Y514971D01*
Y515220D01*
D02*
G37*
G36*
X742950D02*
X732680D01*
Y514971D01*
X733466Y512036D01*
X734986Y509404D01*
X737134Y507256D01*
X739766Y505736D01*
X742701Y504950D01*
X742950D01*
Y515220D01*
D02*
G37*
G36*
X555879Y538353D02*
X542163D01*
Y520827D01*
X551484D01*
X553152Y519159D01*
Y512674D01*
X549516D01*
Y505714D01*
X549516Y504546D01*
X549323Y503665D01*
X546862Y502918D01*
X546858Y502920D01*
X545342D01*
X543942Y502340D01*
X542870Y501268D01*
X542290Y499868D01*
Y498352D01*
X542870Y496952D01*
X543942Y495880D01*
X545342Y495300D01*
X546858D01*
X546862Y495302D01*
X549323Y494555D01*
X549516Y493674D01*
X549516Y492506D01*
Y485546D01*
X562564D01*
Y486502D01*
X567817D01*
Y484702D01*
X585343D01*
Y484966D01*
X594996D01*
X595296Y484906D01*
X595596Y484966D01*
X597996D01*
Y484706D01*
X611044D01*
Y485086D01*
X614112D01*
Y478530D01*
X613990Y478408D01*
X613410Y477008D01*
Y475492D01*
X613990Y474092D01*
X615062Y473020D01*
X616462Y472440D01*
X617978D01*
X619378Y473020D01*
X620450Y474092D01*
X621030Y475492D01*
Y477008D01*
X620450Y478408D01*
X620328Y478530D01*
Y485086D01*
X623396D01*
Y484966D01*
X627055D01*
X628223Y482146D01*
X630096Y479705D01*
X632105Y478163D01*
Y434438D01*
X630809Y432435D01*
X629565Y432435D01*
X622300D01*
Y424561D01*
Y416687D01*
X629565D01*
X630809Y416687D01*
X632105Y414684D01*
Y414403D01*
X631801Y414098D01*
X629793Y412877D01*
Y412877D01*
X629793Y412877D01*
X612267D01*
Y412877D01*
X612013D01*
Y412877D01*
X594487D01*
Y407263D01*
X576199D01*
Y409194D01*
X498221D01*
Y388239D01*
X528037D01*
X528877Y387145D01*
X531318Y385272D01*
X534160Y384095D01*
X537210Y383693D01*
X629846D01*
X629846Y383693D01*
X631372Y383894D01*
X632897Y384095D01*
X635739Y385272D01*
X638180Y387145D01*
X652223Y401188D01*
X652223Y401188D01*
X654096Y403629D01*
X655273Y406471D01*
X655675Y409521D01*
Y479974D01*
X662105D01*
X662894Y478069D01*
X664767Y475628D01*
X667208Y473755D01*
X670050Y472578D01*
X673100Y472176D01*
X733696D01*
Y470966D01*
X739095D01*
X741170Y470107D01*
X744220Y469705D01*
X747270Y470107D01*
X749345Y470966D01*
X754744D01*
Y476365D01*
X755603Y478440D01*
X756005Y481490D01*
X755603Y484540D01*
X754744Y486615D01*
Y492014D01*
X750362D01*
X750082Y492294D01*
X747641Y494167D01*
X744799Y495344D01*
X741749Y495746D01*
X741749Y495746D01*
X684095D01*
X683306Y497651D01*
X681433Y500092D01*
X678992Y501964D01*
X676150Y503142D01*
X673100Y503543D01*
X642149D01*
X642149Y503543D01*
X639099Y503142D01*
X638556Y502917D01*
X636444Y504328D01*
Y513014D01*
X623744D01*
Y513134D01*
X616776D01*
X616615Y513943D01*
X615942Y514951D01*
X613401Y517491D01*
X612393Y518165D01*
X611203Y518402D01*
X597837D01*
X596647Y518165D01*
X595639Y517491D01*
X593098Y514951D01*
X592425Y513943D01*
X592240Y513014D01*
X585343D01*
Y516960D01*
X579688D01*
Y522230D01*
X579810Y522352D01*
X580390Y523752D01*
Y525268D01*
X579810Y526668D01*
X578738Y527740D01*
X577338Y528320D01*
X575822D01*
X574422Y527740D01*
X573350Y526668D01*
X572770Y525268D01*
Y523752D01*
X573350Y522352D01*
X573472Y522230D01*
Y516960D01*
X567817D01*
Y503245D01*
X585296D01*
Y500966D01*
X597996D01*
Y500706D01*
X611044D01*
Y501086D01*
X623396D01*
Y500966D01*
X630440D01*
X631488Y498587D01*
X630244Y497014D01*
X623744D01*
Y497134D01*
X610696D01*
Y496754D01*
X598344D01*
Y497014D01*
X585343D01*
Y498419D01*
X567817D01*
Y492718D01*
X563075D01*
X562564Y495046D01*
X562564Y496214D01*
X562564Y503860D01*
X562564Y505714D01*
Y512674D01*
X559368D01*
Y520446D01*
X559131Y521635D01*
X558457Y522644D01*
X555879Y525222D01*
Y538353D01*
D02*
G37*
G36*
X514650Y538802D02*
X512594Y538531D01*
X510679Y537738D01*
X509034Y536476D01*
X507772Y534831D01*
X506979Y532915D01*
X506708Y530860D01*
X506708Y530860D01*
Y465201D01*
X498221D01*
Y444246D01*
X576199D01*
Y465201D01*
X522592D01*
Y477710D01*
X525055Y478839D01*
X526851Y477803D01*
X528853Y477266D01*
X530927D01*
X532929Y477803D01*
X534725Y478839D01*
X536191Y480305D01*
X537227Y482101D01*
X537764Y484103D01*
Y486177D01*
X537227Y488179D01*
X536191Y489975D01*
X535064Y491101D01*
Y493674D01*
X535064Y493674D01*
Y495046D01*
X535064D01*
X535064Y496214D01*
Y503174D01*
X536080Y503530D01*
Y507340D01*
X528540D01*
Y508610D01*
X527270D01*
Y513690D01*
X522592D01*
Y518713D01*
X523621Y520827D01*
X537337D01*
Y525593D01*
X537357Y525619D01*
X538150Y527534D01*
X538421Y529590D01*
X538150Y531646D01*
X537357Y533561D01*
X537337Y533587D01*
Y538353D01*
X523621D01*
Y537532D01*
X518889D01*
X518621Y537738D01*
X516706Y538531D01*
X514650Y538802D01*
D02*
G37*
G36*
X419940Y528764D02*
X417221Y528406D01*
X414688Y527357D01*
X412513Y525687D01*
X410843Y523512D01*
X409794Y520979D01*
X409436Y518260D01*
X409794Y515541D01*
X410843Y513008D01*
X412513Y510833D01*
X420659Y502686D01*
Y501513D01*
X420659Y501513D01*
X421017Y498794D01*
X422066Y496261D01*
X423735Y494085D01*
X434958Y482863D01*
X434958Y482863D01*
X437134Y481193D01*
X439244Y480319D01*
X439514Y478267D01*
X440563Y475734D01*
X442233Y473558D01*
X445852Y469939D01*
Y379986D01*
X445852Y379985D01*
X446210Y377267D01*
X447259Y374733D01*
X448902Y372592D01*
Y364852D01*
X444401Y360350D01*
X442054Y361322D01*
Y364449D01*
X442315Y366430D01*
X442054Y368411D01*
Y376954D01*
X435655D01*
X433580Y377813D01*
X430530Y378215D01*
X400050D01*
X397000Y377813D01*
X395093Y377023D01*
X393185Y377813D01*
X390135Y378215D01*
X387085Y377813D01*
X384243Y376636D01*
X381802Y374763D01*
X379929Y372322D01*
X378752Y369480D01*
X378350Y366430D01*
Y364016D01*
X369085Y354751D01*
X366738Y355723D01*
Y365780D01*
X366336Y368830D01*
X365159Y371672D01*
X364731Y372230D01*
X365812Y374770D01*
X368365Y375454D01*
X370655Y376776D01*
X372524Y378645D01*
X373846Y380935D01*
X374530Y383488D01*
Y383540D01*
X364490D01*
Y384810D01*
X363220D01*
Y394850D01*
X363168D01*
X360615Y394166D01*
X358325Y392844D01*
X356456Y390975D01*
X355134Y388685D01*
X354912Y387854D01*
X352128Y386771D01*
X350899Y387663D01*
X350873Y387860D01*
X349696Y390702D01*
X347823Y393143D01*
X345382Y395016D01*
X342540Y396193D01*
X339490Y396595D01*
X336440Y396193D01*
X333598Y395016D01*
X331157Y393143D01*
X329284Y390702D01*
X328107Y387860D01*
X327705Y384810D01*
Y381243D01*
X327705Y381243D01*
X327906Y379718D01*
X328107Y378193D01*
X329284Y375350D01*
X331157Y372910D01*
X343168Y360898D01*
Y342177D01*
X340620D01*
X338562Y341768D01*
X336818Y340602D01*
X335652Y338858D01*
X335243Y336800D01*
Y329300D01*
X335652Y327242D01*
X336818Y325498D01*
X338562Y324332D01*
X340620Y323923D01*
X349572D01*
X350978Y322844D01*
X353820Y321667D01*
X356870Y321265D01*
X364050D01*
X364050Y321265D01*
X365575Y321466D01*
X367100Y321667D01*
X369942Y322844D01*
X371348Y323923D01*
X373120D01*
X375178Y324332D01*
X376922Y325498D01*
X378088Y327242D01*
X378497Y329300D01*
Y330831D01*
X398468Y350802D01*
X398468Y350802D01*
X400341Y353242D01*
X400922Y354645D01*
X430530D01*
X433580Y355047D01*
X434291Y355341D01*
X435401Y354943D01*
X436059Y352009D01*
X431686Y347635D01*
X430299Y346571D01*
X430299Y346571D01*
X416753Y333025D01*
X415083Y330850D01*
X414034Y328316D01*
X413676Y325598D01*
X413676Y325597D01*
Y323282D01*
X411136Y322015D01*
X410074Y322725D01*
X407620Y323213D01*
X405140D01*
Y303050D01*
Y282887D01*
X407620D01*
X410074Y283375D01*
X412155Y284765D01*
X413545Y286846D01*
X414033Y289300D01*
Y291919D01*
X416573Y292782D01*
X416753Y292548D01*
X427168Y282133D01*
X427168Y282133D01*
X429343Y280463D01*
X431877Y279414D01*
X434595Y279056D01*
X434595Y279056D01*
X457200D01*
X457200Y279056D01*
X459919Y279414D01*
X462452Y280463D01*
X464627Y282133D01*
X467167Y284673D01*
X467167Y284673D01*
X476791Y294296D01*
X487680D01*
X490399Y294654D01*
X492932Y295703D01*
X495107Y297373D01*
X496777Y299548D01*
X497127Y300394D01*
X499668Y300226D01*
X499782Y300096D01*
X499782Y300096D01*
Y274574D01*
X499782Y274574D01*
X500140Y271855D01*
X501189Y269322D01*
X502859Y267147D01*
X503301Y266704D01*
Y258826D01*
X581279D01*
Y279781D01*
X534970D01*
X534464Y282321D01*
X536112Y283003D01*
X538287Y284673D01*
X539957Y286848D01*
X541006Y289381D01*
X541364Y292100D01*
X541006Y294819D01*
X539957Y297352D01*
X538287Y299527D01*
X536320Y301037D01*
Y304800D01*
X535836Y305966D01*
X533794Y308009D01*
Y310794D01*
X533794Y310794D01*
Y312166D01*
X533794D01*
X533794Y313334D01*
Y320294D01*
X534810Y320650D01*
Y324460D01*
X527270D01*
Y325730D01*
X526000D01*
Y330810D01*
X525551D01*
X524579Y333157D01*
X528522Y337100D01*
X529762Y337613D01*
X531937Y339283D01*
X533607Y341458D01*
X533730Y341757D01*
X537337D01*
Y359283D01*
X523621D01*
X523277Y357214D01*
X520559Y356856D01*
X518026Y355807D01*
X515850Y354137D01*
X515850Y354137D01*
X503413Y341700D01*
X501743Y339524D01*
X500694Y336991D01*
X500385Y334645D01*
X492760D01*
Y326771D01*
X490220D01*
Y334645D01*
X481711D01*
Y329692D01*
X476250D01*
Y322326D01*
X473710D01*
Y329692D01*
X467741D01*
X467534Y330254D01*
X462848D01*
Y333000D01*
X462970Y333122D01*
X463550Y334522D01*
Y336038D01*
X462970Y337438D01*
X461898Y338510D01*
X460498Y339090D01*
X458982D01*
X457582Y338510D01*
X456510Y337438D01*
X455930Y336038D01*
Y334522D01*
X456327Y333563D01*
X455523Y330790D01*
X454092Y330254D01*
X453564Y330254D01*
Y330254D01*
X447606D01*
X446554Y332794D01*
X466833Y353074D01*
X466833Y353074D01*
X468503Y355249D01*
X469552Y357783D01*
X469910Y360501D01*
X469910Y360501D01*
Y376935D01*
X469910Y376935D01*
X469552Y379653D01*
X468503Y382187D01*
X466859Y384328D01*
Y460666D01*
X474020D01*
X474021Y460666D01*
X476739Y461024D01*
X479272Y462073D01*
X481448Y463743D01*
X486217Y468512D01*
X486217Y468512D01*
X498155Y480450D01*
X498592Y481020D01*
X502793D01*
Y494735D01*
X499250D01*
X498204Y496006D01*
X499299Y498545D01*
X503809D01*
Y505149D01*
X494030D01*
Y506419D01*
X492760D01*
Y514294D01*
X486029D01*
Y515239D01*
X480060D01*
Y507873D01*
X477520D01*
Y515239D01*
X471551D01*
Y514404D01*
X462301D01*
X456690Y520015D01*
Y520188D01*
X456110Y521588D01*
X455038Y522660D01*
X453638Y523240D01*
X452122D01*
X450722Y522660D01*
X449650Y521588D01*
X449070Y520188D01*
Y519720D01*
X449012Y519430D01*
Y512244D01*
X445596D01*
Y505700D01*
X443285Y504699D01*
X441667Y506017D01*
Y507037D01*
X441667Y507037D01*
X441309Y509756D01*
X440259Y512289D01*
X438590Y514465D01*
X438590Y514465D01*
X427367Y525687D01*
X425192Y527357D01*
X422659Y528406D01*
X419940Y528764D01*
D02*
G37*
G36*
X601980Y432435D02*
X593471D01*
Y425831D01*
X601980D01*
Y432435D01*
D02*
G37*
G36*
Y423291D02*
X593471D01*
Y416687D01*
X601980D01*
Y423291D01*
D02*
G37*
G36*
X619760Y432435D02*
X604520D01*
Y424561D01*
Y416687D01*
X619760D01*
Y424561D01*
Y432435D01*
D02*
G37*
G36*
X412590Y417270D02*
X401320D01*
Y407000D01*
X412590D01*
Y417270D01*
D02*
G37*
G36*
X398780D02*
X387510D01*
Y407000D01*
X398780D01*
Y417270D01*
D02*
G37*
G36*
X397940Y477764D02*
X395221Y477406D01*
X392688Y476357D01*
X390513Y474687D01*
X388843Y472512D01*
X387794Y469979D01*
X387436Y467260D01*
X387794Y464541D01*
X388843Y462008D01*
X390513Y459833D01*
X418916Y431429D01*
Y405840D01*
X418916Y405840D01*
X419006Y405157D01*
Y395206D01*
X442054D01*
Y416254D01*
X439924D01*
Y435780D01*
X439566Y438499D01*
X438517Y441032D01*
X436847Y443207D01*
X436847Y443207D01*
X405367Y474687D01*
X403192Y476357D01*
X400659Y477406D01*
X397940Y477764D01*
D02*
G37*
G36*
X412590Y404460D02*
X401320D01*
Y394190D01*
X412590D01*
Y404460D01*
D02*
G37*
G36*
X398780D02*
X387510D01*
Y394190D01*
X398780D01*
Y404460D01*
D02*
G37*
G36*
X365812Y394850D02*
X365760D01*
Y386080D01*
X374530D01*
Y386132D01*
X373846Y388685D01*
X372524Y390975D01*
X370655Y392844D01*
X368365Y394166D01*
X365812Y394850D01*
D02*
G37*
G36*
X674422Y343850D02*
X674370D01*
Y335080D01*
X683140D01*
Y335132D01*
X682456Y337685D01*
X681134Y339975D01*
X679265Y341844D01*
X676975Y343166D01*
X674422Y343850D01*
D02*
G37*
G36*
X671830D02*
X671778D01*
X669225Y343166D01*
X666935Y341844D01*
X665066Y339975D01*
X663744Y337685D01*
X663060Y335132D01*
Y335080D01*
X671830D01*
Y343850D01*
D02*
G37*
G36*
X745739Y345150D02*
X745490D01*
Y334880D01*
X755760D01*
Y335129D01*
X754974Y338064D01*
X753454Y340696D01*
X751306Y342844D01*
X748674Y344364D01*
X745739Y345150D01*
D02*
G37*
G36*
X742950D02*
X742701D01*
X739766Y344364D01*
X737134Y342844D01*
X734986Y340696D01*
X733466Y338064D01*
X732680Y335129D01*
Y334880D01*
X742950D01*
Y345150D01*
D02*
G37*
G36*
X534810Y330810D02*
X528540D01*
Y327000D01*
X534810D01*
Y330810D01*
D02*
G37*
G36*
X683140Y332540D02*
X674370D01*
Y323770D01*
X674422D01*
X676975Y324454D01*
X679265Y325776D01*
X681134Y327645D01*
X682456Y329935D01*
X683140Y332488D01*
Y332540D01*
D02*
G37*
G36*
X671830D02*
X663060D01*
Y332488D01*
X663744Y329935D01*
X665066Y327645D01*
X666935Y325776D01*
X669225Y324454D01*
X671778Y323770D01*
X671830D01*
Y332540D01*
D02*
G37*
G36*
X755760Y332340D02*
X745490D01*
Y322070D01*
X745739D01*
X748674Y322856D01*
X751306Y324376D01*
X753454Y326524D01*
X754974Y329156D01*
X755760Y332091D01*
Y332340D01*
D02*
G37*
G36*
X742950D02*
X732680D01*
Y332091D01*
X733466Y329156D01*
X734986Y326524D01*
X737134Y324376D01*
X739766Y322856D01*
X742701Y322070D01*
X742950D01*
Y332340D01*
D02*
G37*
G36*
X402600Y323213D02*
X400120D01*
X397666Y322725D01*
X395585Y321335D01*
X394195Y319254D01*
X393707Y316800D01*
Y304320D01*
X402600D01*
Y323213D01*
D02*
G37*
G36*
X555879Y359283D02*
X542163D01*
Y341757D01*
X547103D01*
X551662Y337197D01*
Y329794D01*
X548246D01*
X548246Y322214D01*
X547457Y320979D01*
X546380Y320040D01*
X545342D01*
X543942Y319460D01*
X542870Y318388D01*
X542290Y316988D01*
Y315472D01*
X542870Y314072D01*
X543942Y313000D01*
X545342Y312420D01*
X546380D01*
X547457Y311481D01*
X548246Y310246D01*
X548246Y309626D01*
Y302666D01*
X555059D01*
X555892Y302500D01*
X563106D01*
X563961Y301929D01*
X565150Y301692D01*
X565504Y301763D01*
X571500D01*
X571800Y301822D01*
X584073D01*
Y302086D01*
X609774D01*
Y302206D01*
X612842D01*
Y297041D01*
X612720Y296918D01*
X612140Y295518D01*
Y294002D01*
X612720Y292602D01*
X613792Y291530D01*
X615192Y290950D01*
X616708D01*
X618108Y291530D01*
X619180Y292602D01*
X619760Y294002D01*
Y295518D01*
X619180Y296918D01*
X619058Y297041D01*
Y302206D01*
X622126D01*
Y302086D01*
X624004D01*
X624794Y300178D01*
X626667Y297737D01*
X629108Y295864D01*
X631950Y294687D01*
X635000Y294285D01*
X647109D01*
Y258637D01*
X639805Y251334D01*
X608531D01*
X605480Y250932D01*
X602638Y249755D01*
X600197Y247882D01*
X600197Y247882D01*
X589837Y237521D01*
X587964Y235081D01*
X586787Y232238D01*
X586586Y230713D01*
X586385Y229188D01*
X586385Y229188D01*
Y225145D01*
X542354D01*
X542354Y225145D01*
X539303Y224743D01*
X536963Y223774D01*
X503301D01*
Y202819D01*
X537053D01*
X539240Y201913D01*
X542290Y201512D01*
X542772Y201575D01*
X598170D01*
X601220Y201977D01*
X604062Y203154D01*
X606503Y205027D01*
X608376Y207468D01*
X608711Y208277D01*
X611251Y207771D01*
Y206275D01*
X619760D01*
Y214149D01*
Y222023D01*
X612495D01*
X611251Y222023D01*
X609955Y224026D01*
Y224307D01*
X610259Y224611D01*
X612267Y225833D01*
Y225833D01*
X612267Y225833D01*
X629793D01*
Y225833D01*
X631317D01*
Y225833D01*
X648843D01*
Y228624D01*
X650579Y229343D01*
X653020Y231216D01*
X667226Y245422D01*
X667226Y245422D01*
X669099Y247863D01*
X670277Y250705D01*
X670678Y253755D01*
Y289722D01*
X673100Y292144D01*
X674967Y290277D01*
X674967Y290277D01*
X677408Y288404D01*
X680250Y287227D01*
X683300Y286825D01*
X683300Y286825D01*
X744220D01*
X747270Y287227D01*
X749345Y288086D01*
X754744D01*
Y293485D01*
X755603Y295560D01*
X756005Y298610D01*
X755603Y301660D01*
X754744Y303735D01*
Y309134D01*
X749345D01*
X747270Y309993D01*
X744220Y310395D01*
X688181D01*
X681433Y317143D01*
X678992Y319016D01*
X676150Y320193D01*
X673100Y320595D01*
X670050Y320193D01*
X667208Y319016D01*
X665694Y317855D01*
X637618D01*
X635174Y318086D01*
X635174Y320395D01*
Y330134D01*
X622474D01*
Y330254D01*
X609426D01*
Y330134D01*
X598090D01*
Y331150D01*
X591820D01*
Y324110D01*
X589280D01*
Y331150D01*
X584073D01*
Y334081D01*
X577148D01*
Y337720D01*
X577485Y338058D01*
X578104Y339552D01*
Y341168D01*
X577485Y342662D01*
X576342Y343805D01*
X574848Y344424D01*
X573232D01*
X571738Y343805D01*
X570595Y342662D01*
X569976Y341168D01*
Y339552D01*
X570595Y338058D01*
X570932Y337720D01*
Y334081D01*
X566547D01*
Y320364D01*
X581214D01*
X582278Y319301D01*
X582155Y316383D01*
X581104Y315539D01*
X566547D01*
Y310670D01*
X566511Y310591D01*
X564342Y308716D01*
X563090D01*
X561294Y310512D01*
Y311480D01*
X561294Y313334D01*
X561294Y320980D01*
X561294Y322834D01*
Y329794D01*
X557878D01*
Y338484D01*
X557641Y339674D01*
X556968Y340682D01*
X555879Y341771D01*
Y359283D01*
D02*
G37*
G36*
X402600Y301780D02*
X393707D01*
Y289300D01*
X394195Y286846D01*
X395585Y284765D01*
X397666Y283375D01*
X400120Y282887D01*
X402600D01*
Y301780D01*
D02*
G37*
G36*
X370620Y283213D02*
X358140D01*
Y274320D01*
X377033D01*
Y276800D01*
X376545Y279254D01*
X375155Y281335D01*
X373074Y282725D01*
X370620Y283213D01*
D02*
G37*
G36*
X355600D02*
X343120D01*
X340666Y282725D01*
X338585Y281335D01*
X337195Y279254D01*
X336707Y276800D01*
Y274320D01*
X355600D01*
Y283213D01*
D02*
G37*
G36*
X377033Y271780D02*
X358140D01*
Y262887D01*
X370620D01*
X373074Y263375D01*
X375155Y264765D01*
X376545Y266846D01*
X377033Y269300D01*
Y271780D01*
D02*
G37*
G36*
X355600D02*
X336707D01*
Y269300D01*
X337195Y266846D01*
X338585Y264765D01*
X340666Y263375D01*
X343120Y262887D01*
X355600D01*
Y271780D01*
D02*
G37*
G36*
X641350Y222023D02*
Y215419D01*
X649859D01*
Y222023D01*
X641350D01*
D02*
G37*
G36*
X649859Y212879D02*
X641350D01*
Y206275D01*
X649859D01*
Y212879D01*
D02*
G37*
G36*
X622300Y222023D02*
Y214149D01*
Y206275D01*
X638810D01*
Y214149D01*
Y222023D01*
X622300D01*
D02*
G37*
%LPD*%
G36*
X440516Y323760D02*
Y318206D01*
X453564D01*
Y318206D01*
X454486Y318206D01*
Y318206D01*
X466173D01*
X466713Y317300D01*
X465634Y314298D01*
X465493Y314254D01*
X454580D01*
Y315270D01*
X448310D01*
Y308230D01*
X447040D01*
Y306960D01*
X439500D01*
Y303102D01*
X436960Y302050D01*
X434684Y304326D01*
Y321247D01*
X438169Y324732D01*
X440516Y323760D01*
D02*
G37*
G36*
X467360Y309880D02*
X472440Y304800D01*
X467360Y302260D01*
X466090Y303530D01*
X457200D01*
Y311150D01*
X467360D01*
Y309880D01*
D02*
G37*
G36*
X534670Y304800D02*
Y290830D01*
X524510D01*
X523240Y292100D01*
Y307340D01*
X532130D01*
X534670Y304800D01*
D02*
G37*
%LPC*%
G36*
X445770Y315270D02*
X439500D01*
Y309500D01*
X445770D01*
Y315270D01*
D02*
G37*
%LPD*%
D12*
X542290Y269303D02*
D03*
Y213297D02*
D03*
X537210Y454724D02*
D03*
Y398717D02*
D03*
D13*
X527270Y316230D02*
D03*
Y325730D02*
D03*
Y306730D02*
D03*
X554770D02*
D03*
Y316230D02*
D03*
Y325730D02*
D03*
X528540Y489610D02*
D03*
Y508610D02*
D03*
Y499110D02*
D03*
X556040Y489610D02*
D03*
Y499110D02*
D03*
Y508610D02*
D03*
D14*
X530479Y350520D02*
D03*
X549021D02*
D03*
X530479Y529590D02*
D03*
X549021D02*
D03*
D15*
X461010Y308230D02*
D03*
X452120Y490220D02*
D03*
X590550Y308110D02*
D03*
Y324110D02*
D03*
X603250D02*
D03*
Y308110D02*
D03*
X447040Y324230D02*
D03*
Y308230D02*
D03*
X615950Y324230D02*
D03*
Y308230D02*
D03*
X628650Y308110D02*
D03*
Y324110D02*
D03*
X461010Y324230D02*
D03*
X604520Y490730D02*
D03*
Y506730D02*
D03*
X591820Y506990D02*
D03*
Y490990D02*
D03*
X466090Y508380D02*
D03*
Y492380D02*
D03*
X617220Y507110D02*
D03*
Y491110D02*
D03*
X629920Y490990D02*
D03*
Y506990D02*
D03*
X452120Y506220D02*
D03*
D16*
X474980Y307340D02*
D03*
X478790Y492887D02*
D03*
X474980Y322326D02*
D03*
X478790Y507873D02*
D03*
D17*
X491490Y308229D02*
D03*
X494030Y487878D02*
D03*
X575310Y327223D02*
D03*
Y308680D02*
D03*
X640080Y232691D02*
D03*
Y214149D02*
D03*
X621030Y232691D02*
D03*
Y214149D02*
D03*
X491490Y326771D02*
D03*
X576580Y510103D02*
D03*
Y491561D02*
D03*
X621030Y406019D02*
D03*
Y424561D02*
D03*
X603250Y406019D02*
D03*
Y424561D02*
D03*
X494030Y506419D02*
D03*
D18*
X400050Y366430D02*
D03*
Y405730D02*
D03*
X430530D02*
D03*
Y366430D02*
D03*
D33*
X608531Y239549D02*
X644687D01*
X390135Y359135D02*
Y366430D01*
X364050Y333050D02*
X390135Y359135D01*
X356870Y333050D02*
X364050D01*
X400050Y366430D02*
X430530D01*
X354953Y334967D02*
Y365780D01*
Y334967D02*
X356870Y333050D01*
X542354Y213360D02*
X598170D01*
X542290Y213297D02*
X542354Y213360D01*
X670360Y306070D02*
X673100Y308810D01*
X658893Y294603D02*
X670360Y306070D01*
X598170Y213360D02*
Y229188D01*
X608531Y239549D01*
X673100Y483961D02*
X741749D01*
X629846Y395478D02*
X643890Y409521D01*
X621030Y395478D02*
X629846D01*
X537210D02*
X621030D01*
X643890Y409521D02*
Y486410D01*
X658893Y253755D02*
Y294603D01*
X644687Y239549D02*
X658893Y253755D01*
X635000Y306070D02*
X670360D01*
X683300Y298610D02*
X744220D01*
X673100Y308810D02*
X683300Y298610D01*
X638429Y488038D02*
X642149Y491758D01*
X673100D01*
X741749Y483961D02*
X744220Y481490D01*
X339490Y381243D02*
Y384810D01*
Y381243D02*
X354953Y365780D01*
D34*
X513080Y271780D02*
X515620Y269240D01*
X537210D01*
X537273Y269303D01*
X542290D01*
X517468Y499110D02*
X528540D01*
D35*
X510286Y300096D02*
X510840Y300650D01*
Y316230D01*
X510286Y274574D02*
Y300096D01*
Y274574D02*
X513080Y271780D01*
X510840Y316230D02*
Y334273D01*
X523277Y346710D01*
X524510D01*
X456356Y471170D02*
X474021D01*
X478790Y475939D01*
X449660Y480985D02*
X456356Y474290D01*
X449660Y480985D02*
Y486330D01*
X459740Y292100D02*
X472440Y304800D01*
X478790Y475939D02*
X490728Y487878D01*
X434595Y289560D02*
X457200D01*
X459740Y292100D01*
X424180Y325598D02*
X437726Y339144D01*
X424180Y299975D02*
X434595Y289560D01*
X424180Y299975D02*
Y325598D01*
X437726Y339144D02*
X438049D01*
X459406Y360501D01*
X529590Y292100D02*
X530860D01*
X472440Y304800D02*
X487680D01*
X445700Y490290D02*
X449660Y486330D01*
X459406Y360501D02*
Y376935D01*
X431163Y501513D02*
X442385Y490290D01*
X445700D01*
X419940Y518260D02*
X431163Y507037D01*
Y501513D02*
Y507037D01*
X456356Y379985D02*
Y474290D01*
Y379985D02*
X459406Y376935D01*
X429530Y405730D02*
X430530D01*
X429420Y405840D02*
X429530Y405730D01*
X429420Y405840D02*
Y435780D01*
X397940Y467260D02*
X429420Y435780D01*
D36*
X514350Y316230D02*
X527270D01*
D37*
X477005Y506087D02*
X478790Y507873D01*
X477005Y500761D02*
Y506087D01*
X472828Y500761D02*
X477005D01*
X469566Y497499D02*
X472828Y500761D01*
X469566Y495356D02*
Y497499D01*
X466590Y492380D02*
X469566Y495356D01*
X466090Y492380D02*
X466590D01*
X474980Y322326D02*
Y331470D01*
X471170Y335280D02*
X474980Y331470D01*
X436880Y310016D02*
Y313801D01*
Y310016D02*
X438666Y308230D01*
X447040D01*
Y324230D02*
X460770D01*
X546100Y316230D02*
X554770D01*
X459740Y325500D02*
Y335280D01*
Y325500D02*
X461010Y324230D01*
X460168Y511642D02*
X465590Y506220D01*
X466090D01*
X460168Y511642D02*
Y512142D01*
X452120Y506220D02*
Y519430D01*
X452880D02*
X460168Y512142D01*
X452120Y519430D02*
X452880D01*
X546100Y499110D02*
X556040D01*
X491490Y326771D02*
Y327081D01*
X492272Y510052D02*
X494030Y508294D01*
Y506927D02*
Y508294D01*
X525674Y508610D02*
X528540D01*
X525064Y508000D02*
X525674Y508610D01*
X548450Y344805D02*
X554770Y338484D01*
Y325730D02*
Y338484D01*
Y306730D02*
X555892Y305608D01*
X564342D01*
X565150Y304800D01*
X565220Y304870D01*
X571500D01*
X575310Y308680D01*
X590550Y308110D02*
X603250D01*
X575881D02*
X590550D01*
X575310Y308680D02*
X575881Y308110D01*
X574630Y489610D02*
X576580Y491561D01*
X556040Y489610D02*
X574630D01*
X576865Y490220D02*
X605505D01*
X591820Y490990D02*
X592320D01*
X595296Y488014D01*
X576580Y491561D02*
X577150Y490990D01*
X556260Y508821D02*
Y520446D01*
X549021Y527685D02*
X556260Y520446D01*
X615950Y294760D02*
Y308230D01*
Y324110D02*
X628650D01*
X603250D02*
X615950D01*
X617220Y476250D02*
Y491110D01*
X576580Y510103D02*
Y524510D01*
X574040Y328493D02*
X575310Y327223D01*
X574040Y328493D02*
Y340360D01*
X591820Y506990D02*
X592320D01*
X595296Y509966D01*
Y512753D01*
X597837Y515294D01*
X611203D01*
X613744Y512753D01*
Y510086D02*
Y512753D01*
Y510086D02*
X616720Y507110D01*
X617220D01*
X617280Y507050D01*
X629860D01*
X629920Y506990D01*
D38*
X490728Y487878D02*
X494030D01*
X478790Y475939D02*
Y489077D01*
D39*
X514650Y457327D02*
X517253Y454724D01*
X537210D01*
X514650Y457327D02*
Y530860D01*
X515920Y529590D02*
X530479D01*
X514650Y530860D02*
X515920Y529590D01*
D40*
X549021Y348615D02*
Y350520D01*
Y527685D02*
Y529590D01*
D41*
X356870Y333050D02*
D03*
D42*
Y273050D02*
D03*
D43*
X403870Y303050D02*
D03*
D44*
X419940Y518260D02*
D03*
X397940Y467260D02*
D03*
D45*
X744220Y298610D02*
D03*
Y481490D02*
D03*
D46*
Y333610D02*
D03*
Y516490D02*
D03*
D47*
X673100Y491758D02*
D03*
Y516758D02*
D03*
Y308810D02*
D03*
Y333810D02*
D03*
X339490Y384810D02*
D03*
X364490D02*
D03*
D48*
X478790Y449580D02*
D03*
X670560Y411480D02*
D03*
X588010Y365760D02*
D03*
X765810Y436880D02*
D03*
X720090Y393700D02*
D03*
X759460Y391160D02*
D03*
X593090Y257810D02*
D03*
X627380Y363220D02*
D03*
X669290Y368300D02*
D03*
X441960Y457200D02*
D03*
X472440Y406400D02*
D03*
X505460Y375920D02*
D03*
X628650Y278130D02*
D03*
X508000Y240030D02*
D03*
X567690D02*
D03*
X690880Y229870D02*
D03*
X736600Y231140D02*
D03*
X746760Y251460D02*
D03*
X704850Y256540D02*
D03*
X699770Y547370D02*
D03*
X613410Y543560D02*
D03*
X731520Y434340D02*
D03*
X688340Y392430D02*
D03*
X736600Y410210D02*
D03*
X698500Y429260D02*
D03*
X539750Y426720D02*
D03*
X497840Y425450D02*
D03*
X350520Y508000D02*
D03*
X359410Y480060D02*
D03*
X354330Y447040D02*
D03*
X469900Y247650D02*
D03*
X471170Y228600D02*
D03*
X430530D02*
D03*
Y262890D02*
D03*
X474980Y200660D02*
D03*
X331470D02*
D03*
X430530D02*
D03*
X544830Y547370D02*
D03*
X450850Y551180D02*
D03*
X383540D02*
D03*
X320040Y546100D02*
D03*
X323850Y476250D02*
D03*
X320040Y387350D02*
D03*
X318770Y302260D02*
D03*
X367030Y200660D02*
D03*
X681990Y199390D02*
D03*
X723900Y200660D02*
D03*
X770890Y201930D02*
D03*
X471170Y335280D02*
D03*
X436880Y313801D02*
D03*
X459740Y335280D02*
D03*
X546100Y316230D02*
D03*
X615950Y294760D02*
D03*
X576580Y524510D02*
D03*
X617220Y476250D02*
D03*
X546100Y499110D02*
D03*
X452880Y519430D02*
D03*
D49*
X529590Y292100D02*
D03*
X459740D02*
D03*
X477141Y474290D02*
D03*
X529890Y485140D02*
D03*
D50*
X574040Y340360D02*
D03*
M02*
