G04*
G04 #@! TF.GenerationSoftware,Altium Limited,Altium Designer,26.2.0 (7)*
G04*
G04 Layer_Color=8421504*
%FSLAX44Y44*%
%MOMM*%
G71*
G04*
G04 #@! TF.SameCoordinates,31A5F6EC-DB14-40A7-930D-96B77108718B*
G04*
G04*
G04 #@! TF.FilePolarity,Positive*
G04*
G01*
G75*
%ADD12R,7.4930X1.7907*%
%ADD13R,1.0000X0.5080*%
%ADD14R,1.0668X1.4478*%
%ADD15R,1.0000X0.9000*%
%ADD16R,0.9398X0.9652*%
%ADD17R,1.4478X1.0668*%
%ADD18R,2.0000X1.8000*%
G36*
X582295Y197739D02*
D01*
X502285D01*
D01*
X498729D01*
Y284861D01*
X502285D01*
D01*
X582295D01*
D01*
X585851D01*
Y197739D01*
X582295D01*
D02*
G37*
G36*
X577215Y383159D02*
D01*
X497205D01*
D01*
X493649D01*
Y470281D01*
X497205D01*
D01*
X577215D01*
D01*
X580771D01*
Y383159D01*
X577215D01*
D02*
G37*
D12*
X542290Y269303D02*
D03*
Y213297D02*
D03*
X537210Y454724D02*
D03*
Y398717D02*
D03*
D13*
X527270Y316230D02*
D03*
Y325730D02*
D03*
Y306730D02*
D03*
X554770D02*
D03*
Y316230D02*
D03*
Y325730D02*
D03*
X528540Y489610D02*
D03*
Y508610D02*
D03*
Y499110D02*
D03*
X556040Y489610D02*
D03*
Y499110D02*
D03*
Y508610D02*
D03*
D14*
X530479Y350520D02*
D03*
X549021D02*
D03*
X530479Y529590D02*
D03*
X549021D02*
D03*
D15*
X461010Y308230D02*
D03*
X452120Y490220D02*
D03*
X590550Y308110D02*
D03*
Y324110D02*
D03*
X603250D02*
D03*
Y308110D02*
D03*
X447040Y324230D02*
D03*
Y308230D02*
D03*
X615950Y324230D02*
D03*
Y308230D02*
D03*
X628650Y308110D02*
D03*
Y324110D02*
D03*
X461010Y324230D02*
D03*
X604520Y490730D02*
D03*
Y506730D02*
D03*
X591820Y506990D02*
D03*
Y490990D02*
D03*
X466090Y508380D02*
D03*
Y492380D02*
D03*
X617220Y507110D02*
D03*
Y491110D02*
D03*
X629920Y490990D02*
D03*
Y506990D02*
D03*
X452120Y506220D02*
D03*
D16*
X474980Y307340D02*
D03*
X478790Y492887D02*
D03*
X474980Y322326D02*
D03*
X478790Y507873D02*
D03*
D17*
X491490Y308229D02*
D03*
X494030Y487878D02*
D03*
X575310Y327223D02*
D03*
Y308680D02*
D03*
X640080Y232691D02*
D03*
Y214149D02*
D03*
X621030Y232691D02*
D03*
Y214149D02*
D03*
X491490Y326771D02*
D03*
X576580Y510103D02*
D03*
Y491561D02*
D03*
X621030Y406019D02*
D03*
Y424561D02*
D03*
X603250Y406019D02*
D03*
Y424561D02*
D03*
X494030Y506419D02*
D03*
D18*
X400050Y366430D02*
D03*
Y405730D02*
D03*
X430530D02*
D03*
Y366430D02*
D03*
M02*
