G04*
G04 #@! TF.GenerationSoftware,Altium Limited,Altium Designer,26.2.0 (7)*
G04*
G04 Layer_Physical_Order=2*
G04 Layer_Color=16711680*
%FSLAX44Y44*%
%MOMM*%
G71*
G04*
G04 #@! TF.SameCoordinates,31A5F6EC-DB14-40A7-930D-96B77108718B*
G04*
G04*
G04 #@! TF.FilePolarity,Positive*
G04*
G01*
G75*
%ADD35C,1.7780*%
%ADD37C,0.3048*%
G04:AMPARAMS|DCode=41|XSize=1.5mm|YSize=4mm|CornerRadius=0.375mm|HoleSize=0mm|Usage=FLASHONLY|Rotation=90.000|XOffset=0mm|YOffset=0mm|HoleType=Round|Shape=RoundedRectangle|*
%AMROUNDEDRECTD41*
21,1,1.5000,3.2500,0,0,90.0*
21,1,0.7500,4.0000,0,0,90.0*
1,1,0.7500,1.6250,0.3750*
1,1,0.7500,1.6250,-0.3750*
1,1,0.7500,-1.6250,-0.3750*
1,1,0.7500,-1.6250,0.3750*
%
%ADD41ROUNDEDRECTD41*%
G04:AMPARAMS|DCode=42|XSize=1.5mm|YSize=3.5mm|CornerRadius=0.375mm|HoleSize=0mm|Usage=FLASHONLY|Rotation=270.000|XOffset=0mm|YOffset=0mm|HoleType=Round|Shape=RoundedRectangle|*
%AMROUNDEDRECTD42*
21,1,1.5000,2.7500,0,0,270.0*
21,1,0.7500,3.5000,0,0,270.0*
1,1,0.7500,-1.3750,-0.3750*
1,1,0.7500,-1.3750,0.3750*
1,1,0.7500,1.3750,0.3750*
1,1,0.7500,1.3750,-0.3750*
%
%ADD42ROUNDEDRECTD42*%
G04:AMPARAMS|DCode=43|XSize=1.5mm|YSize=3.5mm|CornerRadius=0.375mm|HoleSize=0mm|Usage=FLASHONLY|Rotation=0.000|XOffset=0mm|YOffset=0mm|HoleType=Round|Shape=RoundedRectangle|*
%AMROUNDEDRECTD43*
21,1,1.5000,2.7500,0,0,0.0*
21,1,0.7500,3.5000,0,0,0.0*
1,1,0.7500,0.3750,-1.3750*
1,1,0.7500,-0.3750,-1.3750*
1,1,0.7500,-0.3750,1.3750*
1,1,0.7500,0.3750,1.3750*
%
%ADD43ROUNDEDRECTD43*%
%ADD44C,1.3580*%
%ADD45R,1.8000X1.8000*%
%ADD46C,1.8000*%
%ADD47C,1.5000*%
%ADD48C,0.4572*%
%ADD49C,1.2700*%
%ADD50C,0.5080*%
G36*
X782320Y193040D02*
X308610Y193040D01*
Y558800D01*
X452543Y558800D01*
X740409Y558800D01*
X782320D01*
Y193040D01*
D02*
G37*
%LPC*%
G36*
X674422Y526799D02*
X674370D01*
Y518028D01*
X683140D01*
Y518080D01*
X682456Y520634D01*
X681134Y522923D01*
X679265Y524793D01*
X676975Y526114D01*
X674422Y526799D01*
D02*
G37*
G36*
X671830D02*
X671778D01*
X669225Y526114D01*
X666935Y524793D01*
X665066Y522923D01*
X663744Y520634D01*
X663060Y518080D01*
Y518028D01*
X671830D01*
Y526799D01*
D02*
G37*
G36*
X745739Y528030D02*
X745490D01*
Y517760D01*
X755760D01*
Y518009D01*
X754974Y520944D01*
X753454Y523576D01*
X751306Y525724D01*
X748674Y527243D01*
X745739Y528030D01*
D02*
G37*
G36*
X742950D02*
X742701D01*
X739766Y527243D01*
X737134Y525724D01*
X734986Y523576D01*
X733466Y520944D01*
X732680Y518009D01*
Y517760D01*
X742950D01*
Y528030D01*
D02*
G37*
G36*
X421035Y526574D02*
X418845D01*
X416731Y526007D01*
X414835Y524913D01*
X413287Y523365D01*
X412193Y521469D01*
X411626Y519355D01*
Y517165D01*
X412193Y515051D01*
X413287Y513155D01*
X414835Y511607D01*
X416731Y510513D01*
X418845Y509946D01*
X421035D01*
X423149Y510513D01*
X425045Y511607D01*
X426593Y513155D01*
X427687Y515051D01*
X428254Y517165D01*
Y519355D01*
X427687Y521469D01*
X426593Y523365D01*
X425045Y524913D01*
X423149Y526007D01*
X421035Y526574D01*
D02*
G37*
G36*
X683140Y515489D02*
X674370D01*
Y506718D01*
X674422D01*
X676975Y507403D01*
X679265Y508725D01*
X681134Y510594D01*
X682456Y512883D01*
X683140Y515437D01*
Y515489D01*
D02*
G37*
G36*
X671830D02*
X663060D01*
Y515437D01*
X663744Y512883D01*
X665066Y510594D01*
X666935Y508725D01*
X669225Y507403D01*
X671778Y506718D01*
X671830D01*
Y515489D01*
D02*
G37*
G36*
X755760Y515220D02*
X745490D01*
Y504950D01*
X745739D01*
X748674Y505736D01*
X751306Y507256D01*
X753454Y509404D01*
X754974Y512036D01*
X755760Y514971D01*
Y515220D01*
D02*
G37*
G36*
X742950D02*
X732680D01*
Y514971D01*
X733466Y512036D01*
X734986Y509404D01*
X737134Y507256D01*
X739766Y505736D01*
X742701Y504950D01*
X742950D01*
Y515220D01*
D02*
G37*
G36*
X453638Y523240D02*
X452122D01*
X450722Y522660D01*
X449650Y521588D01*
X449070Y520188D01*
Y519720D01*
X449012Y519430D01*
X449070Y519140D01*
Y518672D01*
X449650Y517272D01*
X450722Y516200D01*
X452122Y515620D01*
X453638D01*
X455038Y516200D01*
X455160Y516322D01*
X528838D01*
X535154Y510006D01*
Y506948D01*
X535391Y505759D01*
X536064Y504751D01*
X542290Y498525D01*
Y498352D01*
X542870Y496952D01*
X543942Y495880D01*
X545342Y495300D01*
X546858D01*
X548258Y495880D01*
X549330Y496952D01*
X549910Y498352D01*
Y499868D01*
X549330Y501268D01*
X548258Y502340D01*
X546858Y502920D01*
X546685D01*
X541370Y508236D01*
Y511294D01*
X541133Y512483D01*
X540459Y513491D01*
X532323Y521628D01*
X531315Y522301D01*
X530126Y522538D01*
X455160D01*
X455038Y522660D01*
X453638Y523240D01*
D02*
G37*
G36*
X508854Y495644D02*
X506452Y495328D01*
X506135Y495286D01*
X505393Y494979D01*
X503602Y494237D01*
X502514Y493402D01*
X501721Y492793D01*
X485140D01*
X485140Y492793D01*
X482738Y492477D01*
X482421Y492435D01*
X481679Y492128D01*
X479888Y491386D01*
X478657Y490442D01*
X477713Y489717D01*
X477713Y489717D01*
X469713Y481717D01*
X468044Y479542D01*
X466995Y477009D01*
X466637Y474290D01*
X466995Y471571D01*
X468044Y469038D01*
X469713Y466863D01*
X471889Y465193D01*
X474422Y464144D01*
X477141Y463786D01*
X479859Y464144D01*
X482392Y465193D01*
X484568Y466863D01*
X489491Y471786D01*
X506003D01*
X506003Y471786D01*
X508406Y472102D01*
X508722Y472144D01*
X509464Y472451D01*
X511255Y473193D01*
X513136Y474636D01*
X529890D01*
X532609Y474994D01*
X535142Y476043D01*
X537317Y477713D01*
X538987Y479888D01*
X540036Y482421D01*
X540394Y485140D01*
X540036Y487859D01*
X538987Y490392D01*
X537317Y492567D01*
X535142Y494237D01*
X532609Y495286D01*
X529890Y495644D01*
X508854D01*
X508854Y495644D01*
D02*
G37*
G36*
X674288Y500783D02*
X671912D01*
X669617Y500168D01*
X667559Y498979D01*
X665879Y497299D01*
X664691Y495242D01*
X664076Y492947D01*
Y490570D01*
X664691Y488275D01*
X665879Y486218D01*
X667559Y484538D01*
X669617Y483349D01*
X671912Y482734D01*
X674288D01*
X676583Y483349D01*
X678641Y484538D01*
X680321Y486218D01*
X681509Y488275D01*
X682124Y490570D01*
Y492947D01*
X681509Y495242D01*
X680321Y497299D01*
X678641Y498979D01*
X676583Y500168D01*
X674288Y500783D01*
D02*
G37*
G36*
X577338Y528320D02*
X575822D01*
X574422Y527740D01*
X573350Y526668D01*
X572770Y525268D01*
Y523752D01*
X573350Y522352D01*
X574422Y521280D01*
X575319Y520908D01*
Y515400D01*
X575556Y514211D01*
X576229Y513203D01*
X613410Y476022D01*
Y475492D01*
X613990Y474092D01*
X615062Y473020D01*
X616462Y472440D01*
X617978D01*
X619378Y473020D01*
X620450Y474092D01*
X621030Y475492D01*
Y477008D01*
X620450Y478408D01*
X619378Y479480D01*
X618292Y479930D01*
X581535Y516687D01*
Y522663D01*
X581298Y523853D01*
X580624Y524861D01*
X580390Y525095D01*
Y525268D01*
X579810Y526668D01*
X578738Y527740D01*
X577338Y528320D01*
D02*
G37*
G36*
X754744Y492014D02*
X733696D01*
Y470966D01*
X754744D01*
Y492014D01*
D02*
G37*
G36*
X399035Y475574D02*
X396846D01*
X394731Y475007D01*
X392835Y473913D01*
X391287Y472365D01*
X390193Y470469D01*
X389626Y468354D01*
Y466165D01*
X390193Y464051D01*
X391287Y462155D01*
X392835Y460607D01*
X394731Y459513D01*
X396846Y458946D01*
X399035D01*
X401149Y459513D01*
X403045Y460607D01*
X404593Y462155D01*
X405687Y464051D01*
X406254Y466165D01*
Y468354D01*
X405687Y470469D01*
X404593Y472365D01*
X403045Y473913D01*
X401149Y475007D01*
X399035Y475574D01*
D02*
G37*
G36*
X365812Y394850D02*
X365760D01*
Y386080D01*
X374530D01*
Y386132D01*
X373846Y388685D01*
X372524Y390975D01*
X370655Y392844D01*
X368365Y394166D01*
X365812Y394850D01*
D02*
G37*
G36*
X363220D02*
X363168D01*
X360615Y394166D01*
X358325Y392844D01*
X356456Y390975D01*
X355134Y388685D01*
X354450Y386132D01*
Y386080D01*
X363220D01*
Y394850D01*
D02*
G37*
G36*
X340678Y393834D02*
X338302D01*
X336007Y393219D01*
X333949Y392031D01*
X332269Y390351D01*
X331081Y388293D01*
X330466Y385998D01*
Y383622D01*
X331081Y381327D01*
X332269Y379269D01*
X333949Y377589D01*
X336007Y376401D01*
X338302Y375786D01*
X340678D01*
X342973Y376401D01*
X345031Y377589D01*
X346711Y379269D01*
X347899Y381327D01*
X348514Y383622D01*
Y385998D01*
X347899Y388293D01*
X346711Y390351D01*
X345031Y392031D01*
X342973Y393219D01*
X340678Y393834D01*
D02*
G37*
G36*
X374530Y383540D02*
X365760D01*
Y374770D01*
X365812D01*
X368365Y375454D01*
X370655Y376776D01*
X372524Y378645D01*
X373846Y380935D01*
X374530Y383488D01*
Y383540D01*
D02*
G37*
G36*
X363220D02*
X354450D01*
Y383488D01*
X355134Y380935D01*
X356456Y378645D01*
X358325Y376776D01*
X360615Y375454D01*
X363168Y374770D01*
X363220D01*
Y383540D01*
D02*
G37*
G36*
X674422Y343850D02*
X674370D01*
Y335080D01*
X683140D01*
Y335132D01*
X682456Y337685D01*
X681134Y339975D01*
X679265Y341844D01*
X676975Y343166D01*
X674422Y343850D01*
D02*
G37*
G36*
X671830D02*
X671778D01*
X669225Y343166D01*
X666935Y341844D01*
X665066Y339975D01*
X663744Y337685D01*
X663060Y335132D01*
Y335080D01*
X671830D01*
Y343850D01*
D02*
G37*
G36*
X745739Y345150D02*
X745490D01*
Y334880D01*
X755760D01*
Y335129D01*
X754974Y338064D01*
X753454Y340696D01*
X751306Y342844D01*
X748674Y344364D01*
X745739Y345150D01*
D02*
G37*
G36*
X742950D02*
X742701D01*
X739766Y344364D01*
X737134Y342844D01*
X734986Y340696D01*
X733466Y338064D01*
X732680Y335129D01*
Y334880D01*
X742950D01*
Y345150D01*
D02*
G37*
G36*
X373120Y342177D02*
X340620D01*
X338562Y341768D01*
X336818Y340602D01*
X335652Y338858D01*
X335243Y336800D01*
Y329300D01*
X335652Y327242D01*
X336818Y325498D01*
X338562Y324332D01*
X340620Y323923D01*
X373120D01*
X375178Y324332D01*
X376922Y325498D01*
X378088Y327242D01*
X378497Y329300D01*
Y336800D01*
X378088Y338858D01*
X376922Y340602D01*
X375178Y341768D01*
X373120Y342177D01*
D02*
G37*
G36*
X683140Y332540D02*
X674370D01*
Y323770D01*
X674422D01*
X676975Y324454D01*
X679265Y325776D01*
X681134Y327645D01*
X682456Y329935D01*
X683140Y332488D01*
Y332540D01*
D02*
G37*
G36*
X671830D02*
X663060D01*
Y332488D01*
X663744Y329935D01*
X665066Y327645D01*
X666935Y325776D01*
X669225Y324454D01*
X671778Y323770D01*
X671830D01*
Y332540D01*
D02*
G37*
G36*
X755760Y332340D02*
X745490D01*
Y322070D01*
X745739D01*
X748674Y322856D01*
X751306Y324376D01*
X753454Y326524D01*
X754974Y329156D01*
X755760Y332091D01*
Y332340D01*
D02*
G37*
G36*
X742950D02*
X732680D01*
Y332091D01*
X733466Y329156D01*
X734986Y326524D01*
X737134Y324376D01*
X739766Y322856D01*
X742701Y322070D01*
X742950D01*
Y332340D01*
D02*
G37*
G36*
X519430Y346008D02*
X464820D01*
X463631Y345771D01*
X462622Y345098D01*
X461949Y344089D01*
X461712Y342900D01*
Y341647D01*
X459155Y339090D01*
X458982D01*
X457582Y338510D01*
X456510Y337438D01*
X455930Y336038D01*
Y334522D01*
X456510Y333122D01*
X457582Y332050D01*
X458982Y331470D01*
X460498D01*
X461898Y332050D01*
X462970Y333122D01*
X463550Y334522D01*
Y334695D01*
X467018Y338162D01*
X467691Y339171D01*
X467815Y339792D01*
X518143D01*
X542290Y315645D01*
Y315472D01*
X542870Y314072D01*
X543942Y313000D01*
X545342Y312420D01*
X546858D01*
X548258Y313000D01*
X549330Y314072D01*
X549910Y315472D01*
Y316988D01*
X549330Y318388D01*
X548258Y319460D01*
X546858Y320040D01*
X546685D01*
X521628Y345098D01*
X520619Y345771D01*
X519430Y346008D01*
D02*
G37*
G36*
X407620Y323213D02*
X405140D01*
Y304320D01*
X414033D01*
Y316800D01*
X413545Y319254D01*
X412155Y321335D01*
X410074Y322725D01*
X407620Y323213D01*
D02*
G37*
G36*
X402600D02*
X400120D01*
X397666Y322725D01*
X395585Y321335D01*
X394195Y319254D01*
X393707Y316800D01*
Y304320D01*
X402600D01*
Y323213D01*
D02*
G37*
G36*
X674288Y317834D02*
X671912D01*
X669617Y317219D01*
X667559Y316031D01*
X665879Y314351D01*
X664691Y312293D01*
X664076Y309998D01*
Y307622D01*
X664691Y305327D01*
X665879Y303269D01*
X667559Y301589D01*
X669617Y300401D01*
X671912Y299786D01*
X674288D01*
X676583Y300401D01*
X678641Y301589D01*
X680321Y303269D01*
X681509Y305327D01*
X682124Y307622D01*
Y309998D01*
X681509Y312293D01*
X680321Y314351D01*
X678641Y316031D01*
X676583Y317219D01*
X674288Y317834D01*
D02*
G37*
G36*
X574848Y344424D02*
X573232D01*
X571738Y343805D01*
X570595Y342662D01*
X569976Y341168D01*
Y339552D01*
X570595Y338058D01*
X570939Y337713D01*
X571169Y336559D01*
X571842Y335551D01*
X573724Y333669D01*
X573939Y332591D01*
X574613Y331582D01*
X612140Y294055D01*
Y294002D01*
X612720Y292602D01*
X613792Y291530D01*
X615192Y290950D01*
X616708D01*
X618108Y291530D01*
X619180Y292602D01*
X619760Y294002D01*
Y295518D01*
X619180Y296918D01*
X618108Y297990D01*
X616708Y298570D01*
X616415D01*
X579896Y335089D01*
X579681Y336167D01*
X579007Y337176D01*
X577673Y338510D01*
X578104Y339552D01*
Y341168D01*
X577485Y342662D01*
X576342Y343805D01*
X574848Y344424D01*
D02*
G37*
G36*
X754744Y309134D02*
X733696D01*
Y288086D01*
X754744D01*
Y309134D01*
D02*
G37*
G36*
X414033Y301780D02*
X405140D01*
Y282887D01*
X407620D01*
X410074Y283375D01*
X412155Y284765D01*
X413545Y286846D01*
X414033Y289300D01*
Y301780D01*
D02*
G37*
G36*
X402600D02*
X393707D01*
Y289300D01*
X394195Y286846D01*
X395585Y284765D01*
X397666Y283375D01*
X400120Y282887D01*
X402600D01*
Y301780D01*
D02*
G37*
G36*
X529590Y302604D02*
X459740D01*
X457021Y302246D01*
X454488Y301197D01*
X452313Y299527D01*
X450643Y297352D01*
X449594Y294819D01*
X449236Y292100D01*
X449594Y289381D01*
X450643Y286848D01*
X452313Y284673D01*
X454488Y283003D01*
X457021Y281954D01*
X459740Y281596D01*
X529590D01*
X532309Y281954D01*
X534842Y283003D01*
X537017Y284673D01*
X538687Y286848D01*
X539736Y289381D01*
X540094Y292100D01*
X539736Y294819D01*
X538687Y297352D01*
X537017Y299527D01*
X534842Y301197D01*
X532309Y302246D01*
X529590Y302604D01*
D02*
G37*
G36*
X370620Y283213D02*
X358140D01*
Y274320D01*
X377033D01*
Y276800D01*
X376545Y279254D01*
X375155Y281335D01*
X373074Y282725D01*
X370620Y283213D01*
D02*
G37*
G36*
X355600D02*
X343120D01*
X340666Y282725D01*
X338585Y281335D01*
X337195Y279254D01*
X336707Y276800D01*
Y274320D01*
X355600D01*
Y283213D01*
D02*
G37*
G36*
X377033Y271780D02*
X358140D01*
Y262887D01*
X370620D01*
X373074Y263375D01*
X375155Y264765D01*
X376545Y266846D01*
X377033Y269300D01*
Y271780D01*
D02*
G37*
G36*
X355600D02*
X336707D01*
Y269300D01*
X337195Y266846D01*
X338585Y264765D01*
X340666Y263375D01*
X343120Y262887D01*
X355600D01*
Y271780D01*
D02*
G37*
%LPD*%
D35*
X459740Y292100D02*
X529590D01*
X477141Y474290D02*
X485140Y482290D01*
X506003D01*
X508854Y485140D01*
X529890D01*
D37*
X460576Y324686D02*
X471170Y335280D01*
X447766Y324686D02*
X460576D01*
X436880Y313801D02*
X447766Y324686D01*
X464820Y340360D02*
Y342900D01*
X459740Y335280D02*
X464820Y340360D01*
Y342900D02*
X519430D01*
X546100Y316230D01*
X530126Y519430D02*
X538262Y511294D01*
X452120Y519430D02*
X530126D01*
X538262Y506948D02*
X546100Y499110D01*
X538262Y506948D02*
Y511294D01*
X576810Y333780D02*
X615950Y294640D01*
X576810Y333780D02*
Y334978D01*
X574040Y337748D02*
X576810Y334978D01*
X574040Y337748D02*
Y340360D01*
X578427Y515400D02*
X617220Y476607D01*
Y476250D02*
Y476607D01*
X576580Y524510D02*
X578427Y522663D01*
Y515400D02*
Y522663D01*
D41*
X356870Y333050D02*
D03*
D42*
Y273050D02*
D03*
D43*
X403870Y303050D02*
D03*
D44*
X419940Y518260D02*
D03*
X397940Y467260D02*
D03*
D45*
X744220Y298610D02*
D03*
Y481490D02*
D03*
D46*
Y333610D02*
D03*
Y516490D02*
D03*
D47*
X673100Y491758D02*
D03*
Y516758D02*
D03*
Y308810D02*
D03*
Y333810D02*
D03*
X339490Y384810D02*
D03*
X364490D02*
D03*
D48*
X478790Y449580D02*
D03*
X670560Y411480D02*
D03*
X588010Y365760D02*
D03*
X765810Y436880D02*
D03*
X720090Y393700D02*
D03*
X759460Y391160D02*
D03*
X593090Y257810D02*
D03*
X627380Y363220D02*
D03*
X669290Y368300D02*
D03*
X441960Y457200D02*
D03*
X472440Y406400D02*
D03*
X505460Y375920D02*
D03*
X628650Y278130D02*
D03*
X508000Y240030D02*
D03*
X567690D02*
D03*
X690880Y229870D02*
D03*
X736600Y231140D02*
D03*
X746760Y251460D02*
D03*
X704850Y256540D02*
D03*
X699770Y547370D02*
D03*
X613410Y543560D02*
D03*
X731520Y434340D02*
D03*
X688340Y392430D02*
D03*
X736600Y410210D02*
D03*
X698500Y429260D02*
D03*
X539750Y426720D02*
D03*
X497840Y425450D02*
D03*
X350520Y508000D02*
D03*
X359410Y480060D02*
D03*
X354330Y447040D02*
D03*
X469900Y247650D02*
D03*
X471170Y228600D02*
D03*
X430530D02*
D03*
Y262890D02*
D03*
X474980Y200660D02*
D03*
X331470D02*
D03*
X430530D02*
D03*
X544830Y547370D02*
D03*
X450850Y551180D02*
D03*
X383540D02*
D03*
X320040Y546100D02*
D03*
X323850Y476250D02*
D03*
X320040Y387350D02*
D03*
X318770Y302260D02*
D03*
X367030Y200660D02*
D03*
X681990Y199390D02*
D03*
X723900Y200660D02*
D03*
X770890Y201930D02*
D03*
X471170Y335280D02*
D03*
X436880Y313801D02*
D03*
X459740Y335280D02*
D03*
X546100Y316230D02*
D03*
X615950Y294760D02*
D03*
X576580Y524510D02*
D03*
X617220Y476250D02*
D03*
X546100Y499110D02*
D03*
X452880Y519430D02*
D03*
D49*
X529590Y292100D02*
D03*
X459740D02*
D03*
X477141Y474290D02*
D03*
X529890Y485140D02*
D03*
D50*
X574040Y340360D02*
D03*
M02*
