G04*
G04 #@! TF.GenerationSoftware,Altium Limited,Altium Designer,26.2.0 (7)*
G04*
G04 Layer_Color=8388736*
%FSLAX44Y44*%
%MOMM*%
G71*
G04*
G04 #@! TF.SameCoordinates,31A5F6EC-DB14-40A7-930D-96B77108718B*
G04*
G04*
G04 #@! TF.FilePolarity,Negative*
G04*
G01*
G75*
%ADD19R,7.6962X1.9939*%
%ADD20R,1.1016X0.6096*%
%ADD21R,1.2700X1.6510*%
%ADD22R,1.2032X1.1032*%
%ADD23R,1.1430X1.1684*%
%ADD24R,1.6510X1.2700*%
%ADD25R,2.2032X2.0032*%
G04:AMPARAMS|DCode=26|XSize=1.7032mm|YSize=4.2032mm|CornerRadius=0.4766mm|HoleSize=0mm|Usage=FLASHONLY|Rotation=90.000|XOffset=0mm|YOffset=0mm|HoleType=Round|Shape=RoundedRectangle|*
%AMROUNDEDRECTD26*
21,1,1.7032,3.2500,0,0,90.0*
21,1,0.7500,4.2032,0,0,90.0*
1,1,0.9532,1.6250,0.3750*
1,1,0.9532,1.6250,-0.3750*
1,1,0.9532,-1.6250,-0.3750*
1,1,0.9532,-1.6250,0.3750*
%
%ADD26ROUNDEDRECTD26*%
G04:AMPARAMS|DCode=27|XSize=1.7032mm|YSize=3.7032mm|CornerRadius=0.4766mm|HoleSize=0mm|Usage=FLASHONLY|Rotation=270.000|XOffset=0mm|YOffset=0mm|HoleType=Round|Shape=RoundedRectangle|*
%AMROUNDEDRECTD27*
21,1,1.7032,2.7500,0,0,270.0*
21,1,0.7500,3.7032,0,0,270.0*
1,1,0.9532,-1.3750,-0.3750*
1,1,0.9532,-1.3750,0.3750*
1,1,0.9532,1.3750,0.3750*
1,1,0.9532,1.3750,-0.3750*
%
%ADD27ROUNDEDRECTD27*%
G04:AMPARAMS|DCode=28|XSize=1.7032mm|YSize=3.7032mm|CornerRadius=0.4766mm|HoleSize=0mm|Usage=FLASHONLY|Rotation=0.000|XOffset=0mm|YOffset=0mm|HoleType=Round|Shape=RoundedRectangle|*
%AMROUNDEDRECTD28*
21,1,1.7032,2.7500,0,0,0.0*
21,1,0.7500,3.7032,0,0,0.0*
1,1,0.9532,0.3750,-1.3750*
1,1,0.9532,-0.3750,-1.3750*
1,1,0.9532,-0.3750,1.3750*
1,1,0.9532,0.3750,1.3750*
%
%ADD28ROUNDEDRECTD28*%
%ADD29C,1.5620*%
%ADD30R,2.0032X2.0032*%
%ADD31C,2.0032*%
%ADD32C,1.7032*%
D19*
X542290Y269303D02*
D03*
Y213297D02*
D03*
X537210Y454724D02*
D03*
Y398717D02*
D03*
D20*
X527270Y316230D02*
D03*
Y325730D02*
D03*
Y306730D02*
D03*
X554770D02*
D03*
Y316230D02*
D03*
Y325730D02*
D03*
X528540Y489610D02*
D03*
Y508610D02*
D03*
Y499110D02*
D03*
X556040Y489610D02*
D03*
Y499110D02*
D03*
Y508610D02*
D03*
D21*
X530479Y350520D02*
D03*
X549021D02*
D03*
X530479Y529590D02*
D03*
X549021D02*
D03*
D22*
X461010Y308230D02*
D03*
X452120Y490220D02*
D03*
X590550Y308110D02*
D03*
Y324110D02*
D03*
X603250D02*
D03*
Y308110D02*
D03*
X447040Y324230D02*
D03*
Y308230D02*
D03*
X615950Y324230D02*
D03*
Y308230D02*
D03*
X628650Y308110D02*
D03*
Y324110D02*
D03*
X461010Y324230D02*
D03*
X604520Y490730D02*
D03*
Y506730D02*
D03*
X591820Y506990D02*
D03*
Y490990D02*
D03*
X466090Y508380D02*
D03*
Y492380D02*
D03*
X617220Y507110D02*
D03*
Y491110D02*
D03*
X629920Y490990D02*
D03*
Y506990D02*
D03*
X452120Y506220D02*
D03*
D23*
X474980Y307340D02*
D03*
X478790Y492887D02*
D03*
X474980Y322326D02*
D03*
X478790Y507873D02*
D03*
D24*
X491490Y308229D02*
D03*
X494030Y487878D02*
D03*
X575310Y327223D02*
D03*
Y308680D02*
D03*
X640080Y232691D02*
D03*
Y214149D02*
D03*
X621030Y232691D02*
D03*
Y214149D02*
D03*
X491490Y326771D02*
D03*
X576580Y510103D02*
D03*
Y491561D02*
D03*
X621030Y406019D02*
D03*
Y424561D02*
D03*
X603250Y406019D02*
D03*
Y424561D02*
D03*
X494030Y506419D02*
D03*
D25*
X400050Y366430D02*
D03*
Y405730D02*
D03*
X430530D02*
D03*
Y366430D02*
D03*
D26*
X356870Y333050D02*
D03*
D27*
Y273050D02*
D03*
D28*
X403870Y303050D02*
D03*
D29*
X419940Y518260D02*
D03*
X397940Y467260D02*
D03*
D30*
X744220Y298610D02*
D03*
Y481490D02*
D03*
D31*
Y333610D02*
D03*
Y516490D02*
D03*
D32*
X673100Y491758D02*
D03*
Y516758D02*
D03*
Y308810D02*
D03*
Y333810D02*
D03*
X339490Y384810D02*
D03*
X364490D02*
D03*
M02*
